<svg xmlns="http://www.w3.org/2000/svg" width="1024" height="1024" viewBox="0 0 1024 1024" role="img" aria-label="UI Consistency Investigator logo">
  <defs>
    <linearGradient id="bg" x1="120" y1="90" x2="910" y2="930" gradientUnits="userSpaceOnUse">
      <stop offset="0" stop-color="#0A1626" />
      <stop offset="0.56" stop-color="#133351" />
      <stop offset="1" stop-color="#1A5D67" />
    </linearGradient>
    <linearGradient id="panel" x1="260" y1="210" x2="790" y2="860" gradientUnits="userSpaceOnUse">
      <stop offset="0" stop-color="#1B4768" stop-opacity="0.96" />
      <stop offset="1" stop-color="#122A40" stop-opacity="0.94" />
    </linearGradient>
    <radialGradient id="halo" cx="0" cy="0" r="1" gradientUnits="userSpaceOnUse" gradientTransform="translate(512 512) rotate(90) scale(350)">
      <stop offset="0" stop-color="#63DCD2" stop-opacity="0.25" />
      <stop offset="1" stop-color="#63DCD2" stop-opacity="0" />
    </radialGradient>
    <filter id="shadow" x="-20%" y="-20%" width="140%" height="140%">
      <feDropShadow dx="0" dy="22" stdDeviation="18" flood-color="#02060C" flood-opacity="0.45" />
    </filter>
  </defs>

  <rect x="54" y="54" width="916" height="916" rx="218" fill="url(#bg)" />
  <rect x="150" y="150" width="724" height="724" rx="142" fill="url(#panel)" stroke="#6EDCD2" stroke-width="26" filter="url(#shadow)" />
  <rect x="150" y="150" width="724" height="724" rx="142" fill="url(#halo)" />

  <rect x="218" y="116" width="586" height="44" rx="22" fill="#F2C24D" />
  <rect x="116" y="218" width="44" height="586" rx="22" fill="#F2C24D" />

  <g stroke="#0D1C2E" stroke-width="10" stroke-linecap="round" opacity="0.95">
    <line x1="274" y1="116" x2="274" y2="160" />
    <line x1="332" y1="116" x2="332" y2="152" />
    <line x1="390" y1="116" x2="390" y2="160" />
    <line x1="448" y1="116" x2="448" y2="152" />
    <line x1="506" y1="116" x2="506" y2="160" />
    <line x1="564" y1="116" x2="564" y2="152" />
    <line x1="622" y1="116" x2="622" y2="160" />
    <line x1="680" y1="116" x2="680" y2="152" />
    <line x1="738" y1="116" x2="738" y2="160" />

    <line x1="116" y1="274" x2="160" y2="274" />
    <line x1="116" y1="332" x2="152" y2="332" />
    <line x1="116" y1="390" x2="160" y2="390" />
    <line x1="116" y1="448" x2="152" y2="448" />
    <line x1="116" y1="506" x2="160" y2="506" />
    <line x1="116" y1="564" x2="152" y2="564" />
    <line x1="116" y1="622" x2="160" y2="622" />
    <line x1="116" y1="680" x2="152" y2="680" />
    <line x1="116" y1="738" x2="160" y2="738" />
  </g>

  <g stroke="#56CFC5" stroke-width="10" stroke-linecap="round" opacity="0.42">
    <line x1="300" y1="300" x2="724" y2="300" />
    <line x1="300" y1="512" x2="724" y2="512" />
    <line x1="300" y1="724" x2="724" y2="724" />
    <line x1="300" y1="300" x2="300" y2="724" />
    <line x1="512" y1="300" x2="512" y2="724" />
    <line x1="724" y1="300" x2="724" y2="724" />
  </g>

  <circle cx="512" cy="512" r="180" fill="none" stroke="#F2C24D" stroke-width="24" opacity="0.95" />
  <circle cx="512" cy="512" r="94" fill="none" stroke="#F2C24D" stroke-width="20" opacity="0.95" />
  <circle cx="512" cy="512" r="26" fill="#F2C24D" />

  <g stroke="#F2C24D" stroke-width="20" stroke-linecap="round" opacity="0.95">
    <line x1="512" y1="272" x2="512" y2="334" />
    <line x1="512" y1="690" x2="512" y2="752" />
    <line x1="272" y1="512" x2="334" y2="512" />
    <line x1="690" y1="512" x2="752" y2="512" />
  </g>

  <path d="M432 528L490 588L608 446" fill="none" stroke="#EAFBF9" stroke-width="30" stroke-linecap="round" stroke-linejoin="round" />
</svg>
