<svg width="512" height="512" viewBox="0 0 512 512" fill="none" xmlns="http://www.w3.org/2000/svg">
  <defs>
    <linearGradient id="bg" x1="72" y1="56" x2="430" y2="460" gradientUnits="userSpaceOnUse">
      <stop offset="0" stop-color="#183D63"/>
      <stop offset="1" stop-color="#0D2239"/>
    </linearGradient>
    <linearGradient id="aqua" x1="143" y1="126" x2="374" y2="376" gradientUnits="userSpaceOnUse">
      <stop offset="0" stop-color="#74F0E2"/>
      <stop offset="1" stop-color="#35B7CC"/>
    </linearGradient>
    <linearGradient id="gold" x1="96" y1="95" x2="236" y2="230" gradientUnits="userSpaceOnUse">
      <stop offset="0" stop-color="#FFD774"/>
      <stop offset="1" stop-color="#F5B74A"/>
    </linearGradient>
  </defs>

  <rect x="38" y="38" width="436" height="436" rx="110" fill="url(#bg)"/>
  <rect x="54" y="54" width="404" height="404" rx="98" stroke="#6DE3DB" stroke-width="18"/>

  <rect x="96" y="96" width="160" height="36" rx="18" fill="url(#gold)"/>
  <rect x="96" y="96" width="32" height="200" rx="16" fill="url(#gold)"/>
  <g stroke="#12304C" stroke-width="7" stroke-linecap="round">
    <line x1="126" y1="96" x2="126" y2="132"/>
    <line x1="156" y1="96" x2="156" y2="132"/>
    <line x1="186" y1="96" x2="186" y2="132"/>
    <line x1="216" y1="96" x2="216" y2="132"/>
    <line x1="96" y1="126" x2="132" y2="126"/>
    <line x1="96" y1="156" x2="132" y2="156"/>
    <line x1="96" y1="186" x2="132" y2="186"/>
    <line x1="96" y1="216" x2="132" y2="216"/>
    <line x1="96" y1="246" x2="132" y2="246"/>
    <line x1="96" y1="276" x2="132" y2="276"/>
  </g>

  <circle cx="273" cy="273" r="116" stroke="url(#aqua)" stroke-width="22"/>
  <circle cx="273" cy="273" r="55" stroke="#FFD06C" stroke-width="14"/>
  <line x1="273" y1="144" x2="273" y2="402" stroke="#63D8D1" stroke-width="14" stroke-linecap="round"/>
  <line x1="144" y1="273" x2="402" y2="273" stroke="#63D8D1" stroke-width="14" stroke-linecap="round"/>
  <circle cx="273" cy="273" r="14" fill="#F7C457"/>

  <path d="M232 276L258 302L318 236" stroke="#EAFBFF" stroke-width="18" stroke-linecap="round" stroke-linejoin="round"/>
</svg>
